<?xml version="1.0" encoding="utf-8"?>
<!-- Generator: Adobe Illustrator 18.0.0, SVG Export Plug-In . SVG Version: 6.00 Build 0)  -->
<!DOCTYPE svg PUBLIC "-//W3C//DTD SVG 1.1//EN" "http://www.w3.org/Graphics/SVG/1.1/DTD/svg11.dtd">
<svg version="1.1" id="Layer_1" xmlns="http://www.w3.org/2000/svg" xmlns:xlink="http://www.w3.org/1999/xlink" x="0px" y="0px"
	 viewBox="0 0 930 140" enable-background="new 0 0 930 140" xml:space="preserve">
<g>
	<path fill="#FFFFFF" d="M129.6,29.2l-10.4,8c-5.7-7.4-12.6-13.1-20.6-16.9c-8-3.8-16.8-5.8-26.4-5.8c-10.5,0-20.2,2.5-29.1,7.5
		c-8.9,5-15.9,11.8-20.8,20.3S15,60.3,15,70.9c0,16,5.5,29.4,16.5,40.1c11,10.7,24.9,16.1,41.6,16.1c18.4,0,33.8-7.2,46.2-21.6
		l10.4,7.9c-6.6,8.3-14.7,14.8-24.5,19.3c-9.8,4.6-20.7,6.8-32.8,6.8c-23,0-41.1-7.7-54.4-23C6.7,103.6,1.1,88,1.1,69.7
		c0-19.2,6.7-35.4,20.2-48.6C34.9,8,51.8,1.5,72.1,1.5c12.3,0,23.3,2.4,33.2,7.3C115.2,13.6,123.3,20.4,129.6,29.2z"/>
	<path fill="#FFFFFF" d="M156.7,4.8h26.2c14.6,0,24.5,0.6,29.7,1.8c7.8,1.8,14.1,5.6,19,11.5c4.9,5.9,7.3,13.1,7.3,21.7
		c0,7.2-1.7,13.4-5,18.9c-3.4,5.4-8.2,9.5-14.4,12.3c-6.3,2.8-14.9,4.2-25.9,4.2l47.3,61h-16.2l-47.3-61h-7.4v61h-13.1V4.8z
		 M169.8,17.6v44.7l22.6,0.2c8.8,0,15.3-0.8,19.5-2.5c4.2-1.7,7.5-4.3,9.8-8s3.5-7.8,3.5-12.3c0-4.4-1.2-8.4-3.6-12
		c-2.4-3.6-5.5-6.2-9.4-7.7c-3.9-1.5-10.3-2.3-19.3-2.3H169.8z"/>
	<path fill="#FFFFFF" d="M329.6,1.5c19.9,0,36.6,6.6,50,19.9C393,34.7,399.7,51,399.7,70.4c0,19.2-6.7,35.6-20.1,49
		c-13.4,13.4-29.7,20.1-48.9,20.1c-19.5,0-35.9-6.7-49.4-20c-13.4-13.3-20.1-29.5-20.1-48.4c0-12.6,3.1-24.3,9.2-35.1
		c6.1-10.8,14.4-19.2,25-25.3C305.9,4.5,317.3,1.5,329.6,1.5z M330.2,14.2c-9.7,0-18.9,2.5-27.7,7.6c-8.7,5.1-15.5,11.9-20.4,20.5
		c-4.9,8.6-7.3,18.2-7.3,28.7c0,15.6,5.4,28.8,16.2,39.6c10.8,10.8,23.9,16.1,39.2,16.1c10.2,0,19.6-2.5,28.3-7.4
		c8.7-4.9,15.5-11.7,20.3-20.3c4.9-8.6,7.3-18.1,7.3-28.6c0-10.4-2.4-19.9-7.3-28.3c-4.9-8.4-11.7-15.2-20.5-20.3
		C349.5,16.8,340.1,14.2,330.2,14.2z"/>
	<path fill="#FFFFFF" d="M418.6,4.8h13.5L459,99.5l37.7-94.7h2.7l37.2,94.7l27.3-94.7h13.4l-37.8,131.4h-2.4l-39-99.4l-39.8,99.4
		h-2.5L418.6,4.8z"/>
	<path fill="#FFFFFF" d="M600.8,4.8h29.6c19.1,0,33.3,2.4,42.6,7.1C682.3,16.6,690,24.3,696,35c6,10.7,9,23.1,9,37.3
		c0,10.1-1.7,19.4-5,27.9c-3.4,8.5-8,15.5-13.9,21.1s-12.3,9.5-19.2,11.6c-6.9,2.1-18.9,3.2-35.9,3.2h-30.1V4.8z M625.7,28.9v82.9
		h11.6c11.4,0,19.7-1.3,24.9-3.9c5.2-2.6,9.4-7,12.6-13.2c3.3-6.2,4.9-13.8,4.9-22.9c0-14-3.9-24.8-11.7-32.5
		c-7-6.9-18.3-10.4-33.9-10.4H625.7z"/>
	<path fill="#FFFFFF" d="M728.9,4.8h71.7v24.5h-46.9V53h46.9v24h-46.9v34.6h46.9v24.6h-71.7V4.8z"/>
	<path fill="#FFFFFF" d="M815.5,4.8h28.1L871.2,47l27.7-42.2H927l-41.7,63.7l44.3,67.7h-28.1L871.3,90L841,136.2h-28.3l44.5-67.8
		L815.5,4.8z"/>
</g>
</svg>
