<?xml version="1.0" encoding="utf-8"?>
<!-- Generator: Adobe Illustrator 23.0.3, SVG Export Plug-In . SVG Version: 6.00 Build 0)  -->
<svg version="1.1" id="Layer_1" xmlns="http://www.w3.org/2000/svg" xmlns:xlink="http://www.w3.org/1999/xlink" x="0px" y="0px"
	 viewBox="0 0 1900 1500" style="enable-background:new 0 0 1900 1500;" xml:space="preserve">
<style type="text/css">
	.st0{fill:#FFFFFF;}
</style>
<g>
	<path class="st0" d="M97.86,981.28c0-74.93-0.06-149.87,0.03-224.8c0.03-25.82,19.82-42.4,43.14-36.48
		c14.05,3.56,24.2,15.63,25.22,30.26c0.32,4.55,0.22,9.12,0.22,13.69c0.01,138.08,0.1,276.15-0.21,414.23
		c-0.02,8.81,2.71,13.3,10.29,17.65c121.21,69.63,242.19,139.65,363.31,209.44c10.3,5.94,18.91,13,21.23,25.23
		c2.7,14.27-1.14,26.63-13.25,35.21c-12.37,8.77-25.56,8.74-38.61,1.23c-47.08-27.1-94.11-54.27-141.15-81.43
		c-82.24-47.48-164.36-95.18-246.82-142.26c-16.36-9.34-23.7-21.75-23.59-40.58C98.13,1128.86,97.86,1055.07,97.86,981.28z"/>
	<path class="st0" d="M1755.13,514.63c0,74.59,0.08,149.17-0.04,223.76c-0.04,25.48-18.91,41.79-42.02,36.81
		c-14.6-3.15-25.4-15.55-26.39-30.48c-0.25-3.79-0.14-7.61-0.14-11.41c-0.01-137.37-0.16-274.75,0.28-412.12
		c0.04-11.62-3.1-18-13.47-23.93c-120.06-68.75-239.77-138.12-359.65-207.19c-10.63-6.13-19.66-13.26-21.91-26.05
		c-2.43-13.84,1.25-25.83,12.81-34.37c11.84-8.75,24.81-9.43,37.56-2.4c19.3,10.64,38.26,21.9,57.36,32.92
		c110.6,63.86,221.08,127.92,331.9,191.41c16.83,9.64,24.06,22.38,23.93,41.59C1754.85,366.98,1755.13,440.8,1755.13,514.63z"/>
	<path class="st0" d="M1354.03,526.49c0.05-18.07-6.54-29.87-22.15-38.84c-127.85-73.43-255.55-147.13-383.06-221.15
		c-15.57-9.03-29.15-9.05-44.72-0.01c-127.52,74.01-255.21,147.72-383.07,221.15c-15.61,8.96-22.32,20.74-22.18,38.82
		c0.57,73.82,0.24,147.64,0.24,221.46c0,73.06,0.43,146.13-0.29,219.18c-0.19,19.51,7.06,31.62,23.92,41.27
		c122.33,70.08,244.29,140.79,366.34,211.36c4.25,2.46,8.47,5.1,12.27,8.2c15.74,12.82,28.14,14.04,46,3.82
		c23.75-13.59,47.4-27.34,71.09-41.02c102.34-59.09,204.68-118.2,307.05-177.25c18.8-10.84,28.91-24.99,28.77-48.63
		C1353.37,818.74,1353.62,672.61,1354.03,526.49z M1289.91,942.73c0.02,8.46-1.96,13.37-9.88,17.91
		c-115.7,66.36-231.16,133.13-346.55,200.03c-6.67,3.87-11.52,4.15-18.4,0.15c-114.04-66.19-228.22-132.14-342.56-197.81
		c-7.34-4.22-9.61-8.75-9.57-16.96c0.34-66.21,0.19-132.42,0.19-198.63c0-66.59,0.13-133.18-0.18-199.77
		c-0.04-7.47,2.26-11.42,8.74-15.15C687,466.21,802.17,399.71,917.22,332.99c6.83-3.96,11.75-3.87,18.52,0.06
		c114.72,66.54,229.55,132.88,344.54,198.94c7.29,4.19,9.67,8.65,9.65,16.9C1289.66,680.17,1289.67,811.45,1289.91,942.73z"/>
</g>
</svg>
